<mxfile host="app.diagrams.net" modified="2023-07-07T15:44:53.332Z" agent="Mozilla/5.0 (Windows NT 10.0; Win64; x64) AppleWebKit/537.36 (KHTML, like Gecko) Chrome/114.0.0.0 Safari/537.36" version="21.3.4" etag="r7Xm-ulneoVZRkuUQmYH" type="github">
  <diagram name="Pagina-1" id="HbbWiI25HfG6fGLl2dwp">
    <mxGraphModel>
      <root>
        <mxCell id="0" />
        <mxCell id="1" parent="0" />
      </root>
    </mxGraphModel>
  </diagram>
</mxfile>
